{"accessors" : [{"bufferView" : 0, "byteOffset" : 0, "componentType" : 5123, "count" : 786, "type" : "SCALAR", "max" : [142], "min" : [0]}, {"bufferView" : 1, "byteOffset" : 0, "componentType" : 5126, "count" : 143, "type" : "VEC3", "max" : [-3, 28, 62], "min" : [-39, -8, 20], "name" : "POSITION"}, {"bufferView" : 0, "byteOffset" : 1572, "componentType" : 5123, "count" : 180, "type" : "SCALAR", "max" : [41], "min" : [0]}, {"bufferView" : 2, "byteOffset" : 0, "componentType" : 5126, "count" : 42, "type" : "VEC3", "max" : [-15, 15, 20], "min" : [-25, 5, 0], "name" : "POSITION"}], "asset" : {"generator" : "Aspose.3D 24.6.0", "version" : "2.0"}, "buffers" : [{"uri" : "buffer.bin", "byteLength" : 4164}], "bufferViews" : [{"buffer" : 0, "byteOffset" : 0, "byteLength" : 1932, "target" : 34963}, {"buffer" : 0, "byteOffset" : 1936, "byteLength" : 1716, "byteStride" : 12, "target" : 34962}, {"buffer" : 0, "byteOffset" : 3656, "byteLength" : 504, "byteStride" : 12, "target" : 34962}], "meshes" : [{"primitives" : [{"attributes" : {"POSITION" : 1}, "indices" : 0, "mode" : 4}], "name" : ""}, {"primitives" : [{"attributes" : {"POSITION" : 3}, "indices" : 2, "mode" : 4}], "name" : ""}], "nodes" : [{"mesh" : 0, "name" : "group_0_1206582"}, {"mesh" : 1, "name" : "group_0_6306067"}], "scene" : 0, "scenes" : [{"nodes" : [0, 1]}]}